<svg width="914" height="844" viewBox="0 0 914 844" fill="none" xmlns="http://www.w3.org/2000/svg">
<path fill-rule="evenodd" clip-rule="evenodd" d="M437.285 0.53934C434.833 0.798403 431.641 1.21 430.194 1.45457L427.562 1.89957V6.78585C427.562 20.8515 419.445 35.961 407.562 44.0147C398.6 50.0879 391.092 52.4169 380.603 52.3772C367.752 52.3287 357.795 48.3293 348.321 39.4102L345.034 36.3153L342.333 38.4105C330.139 47.8672 314.192 63.9676 307.607 73.4691L305.855 75.9973L309.407 79.6942C318.238 88.8849 322.868 101.572 322.124 114.542C321.093 132.515 309.54 148.594 292.848 155.29C288.082 157.201 280.441 158.739 275.709 158.739C271.935 158.739 271.929 158.743 271.585 160.788C269.461 173.449 269.473 196.671 271.613 211.44L271.988 214.03L277.785 214.437C300.398 216.027 317.837 231.296 322.04 253.186C324.788 267.495 320.343 282.169 309.752 293.757L306.661 297.139L308.334 299.362C315.6 309.023 330.488 324.15 340.171 331.71C343.094 333.993 345.689 335.86 345.937 335.86C346.185 335.86 347.988 334.396 349.944 332.605C367.445 316.579 391.896 315.482 411.03 329.865C421.402 337.662 428.823 352.52 428.823 365.493V370.342L436.544 371.19C446.194 372.25 465.899 372.274 475.466 371.236C485.748 370.122 484.921 370.7 484.921 364.616C484.921 351.999 491.595 338.164 501.561 330.118C506.236 326.344 515.28 321.832 520.89 320.474C526.745 319.057 537.064 319.156 543.054 320.689C545.669 321.357 549.898 322.954 552.452 324.235C557.4 326.72 564.577 332.053 565.637 334.033C565.989 334.692 566.622 335.223 567.043 335.215C569.965 335.157 592.823 313.456 601.48 302.521L606.665 295.971L603.89 293.066C595.018 283.781 590.881 274.428 590.339 262.428C589.934 253.465 591.157 247.357 594.883 239.736C602.692 223.762 616.83 214.439 635.208 213.141L640.505 212.768L640.858 210.809C642.488 201.765 642.85 175.188 641.471 165.829L641.075 163.148L540.779 163.307L440.483 163.467V190.571V217.675L498.365 217.835L556.247 217.996L555.817 219.954C554.494 225.977 547.054 240.207 540.824 248.632C536.965 253.85 524.415 266.552 519.589 270.124C507.428 279.126 491.631 286.127 476.179 289.363C470.498 290.552 467.465 290.768 456.242 290.778C444.686 290.79 442.124 290.603 436.071 289.306C398.741 281.308 370.385 257.149 357.345 222.234C351.534 206.674 349.475 189.479 351.554 173.867C355.124 147.058 366.41 125.214 385.76 107.662C399.822 94.9071 419.346 85.4459 438.277 82.2123C470.917 76.6365 504.117 86.5962 528.298 109.219L534.094 114.641L561.825 114.603L589.555 114.567L589.566 110.022C589.594 98.6367 594.228 87.1358 602.244 78.5583L605.792 74.7606L600.678 68.3729C592.47 58.1207 578.193 44.3336 568.274 37.0811L566.219 35.5784L563.547 38.1489C553.702 47.622 543.422 51.8534 530.305 51.8326C522.137 51.82 517.561 50.8272 510.368 47.5073C494.511 40.1893 483.661 23.6275 483.661 6.74235C483.661 0.972365 484.475 1.4905 473.891 0.528625C466.076 -0.18112 444.054 -0.174818 437.285 0.53934Z" fill="#15401A"/>
<path d="M844.317 841.8V679.8H873.917V821.4H913.117V841.8H844.317Z" fill="#1A1A1A"/>
<path d="M731.625 841.8L764.025 679.8H795.625L828.025 841.8H800.625L794.225 804.4H766.025L759.425 841.8H731.625ZM769.025 785.6H791.025L780.025 717.6L769.025 785.6Z" fill="#1A1A1A"/>
<path d="M685.547 841.8V679.8H714.747V841.8H685.547Z" fill="#1A1A1A"/>
<path d="M572.638 841.8V679.8H611.438C622.371 679.8 631.571 681.133 639.038 683.8C646.638 686.333 652.371 690.733 656.238 697C660.238 703.266 662.238 711.8 662.238 722.6C662.238 729.133 661.638 735 660.438 740.2C659.238 745.4 657.171 749.866 654.238 753.6C651.438 757.2 647.504 760 642.438 762L665.038 841.8H635.438L615.838 767.6H602.238V841.8H572.638ZM602.238 749H611.438C617.171 749 621.704 748.2 625.038 746.6C628.504 744.866 630.971 742.2 632.438 738.6C633.904 734.866 634.638 730.133 634.638 724.4C634.638 716.266 633.104 710.2 630.038 706.2C627.104 702.066 621.438 700 613.038 700H602.238V749Z" fill="#1A1A1A"/>
<path d="M502.9 841.8V701.6H477.1V679.8H557.9V701.6H532.5V841.8H502.9Z" fill="#1A1A1A"/>
<path d="M428.672 844C418.939 844 410.805 842.133 404.272 838.4C397.739 834.533 392.805 828.933 389.472 821.6C386.139 814.267 384.272 805.267 383.872 794.6L409.272 789.6C409.539 795.867 410.272 801.4 411.472 806.2C412.805 811 414.739 814.733 417.272 817.4C419.939 819.933 423.405 821.2 427.672 821.2C432.472 821.2 435.872 819.8 437.872 817C439.872 814.067 440.872 810.4 440.872 806C440.872 798.933 439.272 793.133 436.072 788.6C432.872 784.067 428.605 779.533 423.272 775L402.872 757C397.139 752.067 392.539 746.6 389.072 740.6C385.739 734.467 384.072 726.933 384.072 718C384.072 705.2 387.805 695.333 395.272 688.4C402.739 681.467 412.939 678 425.872 678C433.472 678 439.805 679.2 444.872 681.6C449.939 683.867 453.939 687.067 456.872 691.2C459.939 695.333 462.205 700.067 463.672 705.4C465.139 710.6 466.072 716.133 466.472 722L441.272 726.4C441.005 721.333 440.405 716.8 439.472 712.8C438.672 708.8 437.139 705.667 434.872 703.4C432.739 701.133 429.539 700 425.272 700C420.872 700 417.472 701.467 415.072 704.4C412.805 707.2 411.672 710.733 411.672 715C411.672 720.467 412.805 725 415.072 728.6C417.339 732.067 420.605 735.667 424.872 739.4L445.072 757.2C451.739 762.8 457.405 769.4 462.072 777C466.872 784.467 469.272 793.533 469.272 804.2C469.272 811.933 467.539 818.8 464.072 824.8C460.739 830.8 456.005 835.533 449.872 839C443.872 842.333 436.805 844 428.672 844Z" fill="#1A1A1A"/>
<path d="M318.991 844C306.991 844 297.657 841.8 290.991 837.4C284.324 833 279.724 826.733 277.191 818.6C274.657 810.466 273.391 800.733 273.391 789.4V679.8H302.191V792.8C302.191 797.866 302.524 802.666 303.191 807.2C303.857 811.6 305.391 815.2 307.791 818C310.324 820.666 314.057 822 318.991 822C324.191 822 327.924 820.666 330.191 818C332.591 815.2 334.124 811.6 334.791 807.2C335.591 802.666 335.991 797.866 335.991 792.8V679.8H364.591V789.4C364.591 800.733 363.324 810.466 360.791 818.6C358.257 826.733 353.657 833 346.991 837.4C340.457 841.8 331.124 844 318.991 844Z" fill="#1A1A1A"/>
<path d="M163.263 841.8V679.8H201.463C214.663 679.8 224.929 681.6 232.263 685.2C239.729 688.8 244.996 694.333 248.063 701.8C251.263 709.266 252.863 718.733 252.863 730.2V789.4C252.863 801.133 251.263 810.933 248.063 818.8C244.996 826.533 239.796 832.333 232.463 836.2C225.263 839.933 215.329 841.8 202.663 841.8H163.263ZM192.863 821.2H201.863C208.663 821.2 213.529 820 216.463 817.6C219.396 815.2 221.196 811.733 221.863 807.2C222.529 802.533 222.863 796.866 222.863 790.2V728.2C222.863 721.666 222.396 716.4 221.463 712.4C220.529 708.4 218.596 705.466 215.663 703.6C212.729 701.733 207.996 700.8 201.463 700.8H192.863V821.2Z" fill="#1A1A1A"/>
<path d="M54.2783 841.8V679.8H74.8783L114.278 772.2V679.8H138.678V841.8H119.078L79.4783 745V841.8H54.2783Z" fill="#1A1A1A"/>
<path d="M0 841.8V679.8H29.2V841.8H0Z" fill="#1A1A1A"/>
<path d="M764.378 628.8V609.8L807.978 487.2H766.778V466.8H837.778V482L792.578 608.4H837.978V628.8H764.378Z" fill="#1A1A1A"/>
<path d="M684.432 628.8V466.8H752.432V487.6H714.032V534.2H744.232V554.8H714.032V608.4H752.832V628.8H684.432Z" fill="#1A1A1A"/>
<path d="M600.252 628.8V466.8H629.852V608.4H669.052V628.8H600.252Z" fill="#1A1A1A"/>
<path d="M487.56 628.8L519.96 466.8H551.56L583.96 628.8H556.56L550.16 591.4H521.96L515.36 628.8H487.56ZM524.96 572.6H546.96L535.96 504.6L524.96 572.6Z" fill="#1A1A1A"/>
<path d="M405.199 628.8V609.8L448.799 487.2H407.599V466.8H478.599V482L433.399 608.4H478.799V628.8H405.199Z" fill="#1A1A1A"/>
<path d="M301.814 628.8V466.8H322.414L361.814 559.2V466.8H386.214V628.8H366.614L327.014 532V628.8H301.814Z" fill="#1A1A1A"/>
<path d="M233.119 631C221.652 631 212.519 628.867 205.719 624.6C198.919 620.333 194.052 614.2 191.119 606.2C188.185 598.2 186.719 588.733 186.719 577.8V517.2C186.719 506.267 188.185 496.933 191.119 489.2C194.052 481.333 198.919 475.333 205.719 471.2C212.519 467.067 221.652 465 233.119 465C244.852 465 254.052 467.067 260.719 471.2C267.519 475.333 272.385 481.333 275.319 489.2C278.385 496.933 279.919 506.267 279.919 517.2V578C279.919 588.8 278.385 598.2 275.319 606.2C272.385 614.067 267.519 620.2 260.719 624.6C254.052 628.867 244.852 631 233.119 631ZM233.119 609.2C238.052 609.2 241.652 608.133 243.919 606C246.319 603.867 247.919 600.933 248.719 597.2C249.519 593.467 249.919 589.4 249.919 585V510.4C249.919 505.867 249.519 501.8 248.719 498.2C247.919 494.6 246.319 491.8 243.919 489.8C241.652 487.667 238.052 486.6 233.119 486.6C228.452 486.6 224.919 487.667 222.519 489.8C220.119 491.8 218.519 494.6 217.719 498.2C216.919 501.8 216.519 505.867 216.519 510.4V585C216.519 589.4 216.852 593.467 217.519 597.2C218.319 600.933 219.919 603.867 222.319 606C224.719 608.133 228.319 609.2 233.119 609.2Z" fill="#1A1A1A"/>
<path d="M118 631C107.333 631 98.8667 628.733 92.6 624.2C86.3333 619.667 81.8 613.267 79 605C76.3333 596.6 75 586.733 75 575.4V521C75 509.4 76.3333 499.4 79 491C81.6667 482.6 86.3333 476.2 93 471.8C99.8 467.267 109.133 465 121 465C132.067 465 140.867 466.867 147.4 470.6C153.933 474.333 158.6 479.733 161.4 486.8C164.333 493.733 165.8 502.2 165.8 512.2V520.6H137.6V511.4C137.6 506.2 137.2 501.733 136.4 498C135.733 494.267 134.267 491.467 132 489.6C129.867 487.6 126.333 486.6 121.4 486.6C116.2 486.6 112.4 487.867 110 490.4C107.733 492.933 106.267 496.267 105.6 500.4C105.067 504.533 104.8 509.067 104.8 514V581.8C104.8 587.4 105.267 592.267 106.2 596.4C107.133 600.533 108.867 603.733 111.4 606C113.933 608.133 117.533 609.2 122.2 609.2C127 609.2 130.667 608 133.2 605.6C135.733 603.2 137.467 599.867 138.4 595.6C139.467 591.333 140 586.267 140 580.4V565.2H122.6V546.6H166.6V628.8H147.6L145.4 612.8C143.267 618.133 140 622.533 135.6 626C131.333 629.333 125.467 631 118 631Z" fill="#1A1A1A"/>
</svg>
