<svg width="2325" height="279" viewBox="0 0 2325 279" fill="none" xmlns="http://www.w3.org/2000/svg">
<path fill-rule="evenodd" clip-rule="evenodd" d="M125.464 0.404505C123.624 0.598802 121.231 0.907502 120.146 1.09093L118.171 1.42468V5.08938C118.171 15.6386 112.083 26.9708 103.171 33.011C96.4503 37.5659 90.819 39.3127 82.952 39.2829C73.3137 39.2465 65.8463 36.2469 58.7405 29.5576L56.2751 27.2365L54.2494 28.8079C45.1042 35.9004 33.1438 47.9757 28.2055 55.1018L26.8913 56.998L29.5552 59.7706C36.1788 66.6637 39.6511 76.1791 39.0933 85.9067C38.3199 99.386 29.655 111.446 17.1363 116.467C13.5614 117.901 7.83078 119.055 4.28143 119.055C1.45111 119.055 1.44639 119.057 1.18875 120.591C-0.404399 130.087 -0.394956 147.503 1.20953 158.58L1.49129 160.523L5.83911 160.828C22.7983 162.02 35.8777 173.472 39.0299 189.889C41.0906 200.621 37.7573 211.627 29.8143 220.318L27.4959 222.854L28.7506 224.522C34.1999 231.767 45.3661 243.112 52.6279 248.782C54.8205 250.495 56.7668 251.895 56.9526 251.895C57.1388 251.895 58.4913 250.797 59.9578 249.454C73.084 237.434 91.4222 236.612 105.773 247.399C113.552 253.246 119.117 264.39 119.117 274.12V277.756L124.908 278.393C132.146 279.188 146.924 279.205 154.1 278.427C161.811 277.591 161.191 278.025 161.191 273.462C161.191 263.999 166.196 253.623 173.671 247.588C177.177 244.758 183.96 241.374 188.168 240.355C192.558 239.292 200.298 239.367 204.79 240.516C206.752 241.018 209.924 242.215 211.839 243.177C215.55 245.04 220.933 249.04 221.728 250.525C221.992 251.019 222.467 251.417 222.782 251.411C224.974 251.368 242.118 235.092 248.61 226.891L252.499 221.978L250.418 219.8C243.763 212.835 240.661 205.821 240.254 196.821C239.951 190.099 240.868 185.518 243.662 179.802C249.519 167.822 260.122 160.829 273.906 159.856L277.879 159.576L278.143 158.106C279.366 151.324 279.637 131.391 278.603 124.371L278.306 122.361L203.085 122.48L127.863 122.6V142.928V163.256L171.274 163.377L214.685 163.497L214.363 164.965C213.371 169.483 207.79 180.156 203.118 186.474C200.224 190.387 190.811 199.914 187.192 202.593C178.071 209.345 166.223 214.595 154.634 217.022C150.373 217.914 148.099 218.076 139.681 218.084C131.015 218.093 129.093 217.952 124.553 216.979C96.5557 210.981 75.2884 192.862 65.5088 166.675C61.1505 155.006 59.6065 142.109 61.1657 130.4C63.8428 110.294 72.3073 93.9103 86.82 80.7467C97.3664 71.1803 112.009 64.0844 126.208 61.6593C150.688 57.4774 175.587 64.9472 193.724 81.9139L198.07 85.9805L218.869 85.9526L239.666 85.9252L239.674 82.5162C239.695 73.9775 243.171 65.3518 249.183 58.9188L251.844 56.0705L248.008 51.2797C241.853 43.5905 231.145 33.2502 223.706 27.8108L222.164 26.6838L220.16 28.6117C212.776 35.7165 205.067 38.8901 195.229 38.8745C189.103 38.865 185.671 38.1204 180.276 35.6305C168.383 30.1419 160.246 17.7206 160.246 5.05676C160.246 0.729274 160.856 1.11788 152.918 0.396469C147.057 -0.13584 130.54 -0.131113 125.464 0.404505Z" fill="#61A75E"/>
<path d="M2247.58 230.531V49.0133H2280.75V207.674H2324.67V230.531H2247.58Z" fill="#FAFAFA"/>
<path d="M2121.31 230.531L2157.61 49.0133H2193.02L2229.33 230.531H2198.62L2191.45 188.625H2159.86L2152.46 230.531H2121.31ZM2163.22 167.56H2187.87L2175.54 91.3675L2163.22 167.56Z" fill="#FAFAFA"/>
<path d="M2069.68 230.531V49.0133H2102.4V230.531H2069.68Z" fill="#FAFAFA"/>
<path d="M1943.17 230.531V49.0133H1986.64C1998.89 49.0133 2009.2 50.5073 2017.57 53.4952C2026.08 56.3338 2032.51 61.2639 2036.84 68.2856C2041.32 75.3073 2043.56 84.8687 2043.56 96.9699C2043.56 104.29 2042.89 110.864 2041.55 116.69C2040.2 122.517 2037.89 127.522 2034.6 131.705C2031.46 135.739 2027.05 138.876 2021.38 141.117L2046.7 230.531H2013.53L1991.57 147.392H1976.33V230.531H1943.17ZM1976.33 126.551H1986.64C1993.07 126.551 1998.15 125.654 2001.88 123.862C2005.77 121.919 2008.53 118.931 2010.17 114.898C2011.82 110.715 2012.64 105.411 2012.64 98.9868C2012.64 89.8736 2010.92 83.076 2007.48 78.594C2004.2 73.9627 1997.85 71.647 1988.44 71.647H1976.33V126.551Z" fill="#FAFAFA"/>
<path d="M1865.03 230.531V73.4398H1836.12V49.0133H1926.66V73.4398H1898.19V230.531H1865.03Z" fill="#FAFAFA"/>
<path d="M1781.86 233C1770.95 233 1761.84 230.908 1754.52 226.725C1747.2 222.393 1741.67 216.118 1737.93 207.901C1734.2 199.684 1732.11 189.6 1731.66 177.648L1760.12 172.046C1760.42 179.067 1761.24 185.267 1762.59 190.646C1764.08 196.024 1766.25 200.207 1769.08 203.195C1772.07 206.034 1775.96 207.453 1780.74 207.453C1786.12 207.453 1789.93 205.884 1792.17 202.747C1794.41 199.46 1795.53 195.352 1795.53 190.422C1795.53 182.504 1793.73 176.005 1790.15 170.925C1786.56 165.846 1781.78 160.766 1775.81 155.687L1752.95 135.518C1746.53 129.99 1741.37 123.865 1737.49 117.142C1733.75 110.27 1731.88 101.829 1731.88 91.8193C1731.88 77.4771 1736.07 66.4217 1744.43 58.653C1752.8 50.8843 1764.23 47 1778.72 47C1787.24 47 1794.33 48.3446 1800.01 51.0337C1805.69 53.5735 1810.17 57.159 1813.46 61.7904C1816.89 66.4217 1819.43 71.7253 1821.07 77.7012C1822.72 83.5277 1823.76 89.7277 1824.21 96.3012L1795.98 101.231C1795.68 95.5542 1795 90.4747 1793.96 85.9928C1793.06 81.5109 1791.34 78 1788.8 75.4602C1786.41 72.9205 1782.83 71.6506 1778.05 71.6506C1773.12 71.6506 1769.31 73.294 1766.62 76.5807C1764.08 79.7181 1762.81 83.6771 1762.81 88.4578C1762.81 94.5831 1764.08 99.6626 1766.62 103.696C1769.16 107.581 1772.82 111.614 1777.6 115.798L1800.23 135.742C1807.7 142.017 1814.05 149.412 1819.28 157.928C1824.66 166.294 1827.35 176.453 1827.35 188.405C1827.35 197.07 1825.41 204.764 1821.52 211.487C1817.79 218.21 1812.48 223.513 1805.61 227.398C1798.89 231.133 1790.97 233 1781.86 233Z" fill="#FAFAFA"/>
<path d="M1658.96 232.996C1645.52 232.996 1635.06 230.531 1627.59 225.601C1620.12 220.671 1614.96 213.649 1612.13 204.536C1609.29 195.423 1607.87 184.517 1607.87 171.818V49.0133H1640.14V175.628C1640.14 181.305 1640.51 186.683 1641.26 191.763C1642 196.693 1643.72 200.727 1646.41 203.864C1649.25 206.852 1653.43 208.346 1658.96 208.346C1664.79 208.346 1668.97 206.852 1671.51 203.864C1674.2 200.727 1675.92 196.693 1676.66 191.763C1677.56 186.683 1678.01 181.305 1678.01 175.628V49.0133H1710.06V171.818C1710.06 184.517 1708.64 195.423 1705.8 204.536C1702.96 213.649 1697.8 220.671 1690.33 225.601C1683.01 230.531 1672.56 232.996 1658.96 232.996Z" fill="#FAFAFA"/>
<path d="M1484.47 230.531V49.0133H1527.27C1542.06 49.0133 1553.57 51.0302 1561.78 55.0639C1570.15 59.0976 1576.05 65.2977 1579.49 73.6639C1583.07 82.0302 1584.87 92.6374 1584.87 105.486V171.818C1584.87 184.965 1583.07 195.946 1579.49 204.76C1576.05 213.425 1570.22 219.924 1562.01 224.257C1553.94 228.44 1542.81 230.531 1528.62 230.531H1484.47ZM1517.64 207.449H1527.72C1535.34 207.449 1540.79 206.105 1544.08 203.416C1547.37 200.727 1549.38 196.842 1550.13 191.763C1550.88 186.534 1551.25 180.184 1551.25 172.715V103.245C1551.25 95.9242 1550.73 90.023 1549.68 85.541C1548.64 81.0591 1546.47 77.7723 1543.18 75.6808C1539.9 73.5892 1534.59 72.5434 1527.27 72.5434H1517.64V207.449Z" fill="#FAFAFA"/>
<path d="M1362.36 230.531V49.0133H1385.44L1429.58 152.546V49.0133H1456.92V230.531H1434.96L1390.59 122.069V230.531H1362.36Z" fill="#FAFAFA"/>
<path d="M1301.54 230.531V49.0133H1334.26V230.531H1301.54Z" fill="#FAFAFA"/>
<path d="M1144.68 230.531V209.242L1193.53 71.8712H1147.37V49.0133H1226.92V66.0446L1176.28 207.674H1227.15V230.531H1144.68Z" fill="#FAFAFA"/>
<path d="M1055.1 230.531V49.0133H1131.29V72.3193H1088.26V124.534H1122.1V147.616H1088.26V207.674H1131.74V230.531H1055.1Z" fill="#FAFAFA"/>
<path d="M960.777 230.531V49.0133H993.943V207.674H1037.87V230.531H960.777Z" fill="#FAFAFA"/>
<path d="M834.507 230.531L870.811 49.0133H906.218L942.522 230.531H911.821L904.649 188.625H873.052L865.657 230.531H834.507ZM876.413 167.56H901.064L888.739 91.3675L876.413 167.56Z" fill="#FAFAFA"/>
<path d="M742.224 230.531V209.242L791.077 71.8712H744.913V49.0133H824.467V66.0446L773.821 207.674H824.691V230.531H742.224Z" fill="#FAFAFA"/>
<path d="M626.383 230.531V49.0133H649.465L693.612 152.546V49.0133H720.952V230.531H698.991L654.619 122.069V230.531H626.383Z" fill="#FAFAFA"/>
<path d="M550.99 233C538.142 233 527.908 230.61 520.289 225.829C512.67 221.048 507.217 214.176 503.93 205.212C500.643 196.248 499 185.641 499 173.39V105.489C499 93.2386 500.643 82.7807 503.93 74.1157C507.217 65.3012 512.67 58.5783 520.289 53.947C527.908 49.3157 538.142 47 550.99 47C564.137 47 574.446 49.3157 581.916 53.947C589.535 58.5783 594.988 65.3012 598.275 74.1157C601.711 82.7807 603.429 93.2386 603.429 105.489V173.614C603.429 185.716 601.711 196.248 598.275 205.212C594.988 214.027 589.535 220.899 581.916 225.829C574.446 230.61 564.137 233 550.99 233ZM550.99 208.574C556.518 208.574 560.552 207.378 563.092 204.988C565.781 202.598 567.573 199.311 568.47 195.128C569.366 190.945 569.814 186.388 569.814 181.458V97.8699C569.814 92.7904 569.366 88.2337 568.47 84.2C567.573 80.1663 565.781 77.0289 563.092 74.788C560.552 72.3976 556.518 71.2024 550.99 71.2024C545.761 71.2024 541.802 72.3976 539.113 74.788C536.424 77.0289 534.631 80.1663 533.735 84.2C532.839 88.2337 532.39 92.7904 532.39 97.8699V181.458C532.39 186.388 532.764 190.945 533.511 195.128C534.407 199.311 536.2 202.598 538.889 204.988C541.578 207.378 545.612 208.574 550.99 208.574Z" fill="#FAFAFA"/>
<path d="M420.422 233C408.471 233 398.984 230.46 391.962 225.381C384.94 220.301 379.861 213.13 376.724 203.867C373.736 194.455 372.242 183.4 372.242 170.701V109.747C372.242 96.7494 373.736 85.5446 376.724 76.1325C379.712 66.7205 384.94 59.5494 392.41 54.6193C400.03 49.5398 410.487 47 423.784 47C436.184 47 446.044 49.0916 453.365 53.2747C460.685 57.4578 465.914 63.5084 469.051 71.4265C472.338 79.1952 473.981 88.6819 473.981 99.8868V109.299H442.384V98.9904C442.384 93.1639 441.936 88.159 441.039 83.9759C440.292 79.7928 438.649 76.6554 436.109 74.5639C433.719 72.3229 429.76 71.2024 424.232 71.2024C418.406 71.2024 414.148 72.6217 411.459 75.4602C408.919 78.2988 407.275 82.0337 406.528 86.6651C405.931 91.2964 405.632 96.3759 405.632 101.904V177.872C405.632 184.147 406.155 189.6 407.201 194.231C408.247 198.863 410.189 202.448 413.027 204.988C415.866 207.378 419.9 208.574 425.128 208.574C430.507 208.574 434.615 207.229 437.454 204.54C440.292 201.851 442.234 198.116 443.28 193.335C444.475 188.554 445.073 182.877 445.073 176.304V159.272H425.577V138.431H474.878V230.535H453.589L451.124 212.607C448.733 218.583 445.073 223.513 440.143 227.398C435.362 231.133 428.789 233 420.422 233Z" fill="#FAFAFA"/>
</svg>
