<svg width="1743" height="538" viewBox="0 0 1743 538" fill="none" xmlns="http://www.w3.org/2000/svg">
<path fill-rule="evenodd" clip-rule="evenodd" d="M857.464 0.404505C855.624 0.598802 853.231 0.907502 852.146 1.09093L850.171 1.42468V5.08938C850.171 15.6386 844.083 26.9708 835.171 33.011C828.45 37.5659 822.819 39.3127 814.952 39.2829C805.314 39.2465 797.846 36.2469 790.74 29.5576L788.275 27.2365L786.249 28.8079C777.104 35.9004 765.144 47.9757 760.206 55.1018L758.891 56.998L761.555 59.7706C768.179 66.6637 771.651 76.1791 771.093 85.9067C770.32 99.386 761.655 111.446 749.136 116.467C745.561 117.901 739.831 119.055 736.281 119.055C733.451 119.055 733.446 119.057 733.189 120.591C731.596 130.087 731.605 147.503 733.21 158.58L733.491 160.523L737.839 160.828C754.798 162.02 767.878 173.472 771.03 189.889C773.091 200.621 769.757 211.627 761.814 220.318L759.496 222.854L760.751 224.522C766.2 231.767 777.366 243.112 784.628 248.782C786.82 250.495 788.767 251.895 788.953 251.895C789.139 251.895 790.491 250.797 791.958 249.454C805.084 237.434 823.422 236.612 837.773 247.399C845.552 253.246 851.117 264.39 851.117 274.12V277.756L856.908 278.393C864.146 279.188 878.924 279.205 886.1 278.427C893.811 277.591 893.191 278.025 893.191 273.462C893.191 263.999 898.196 253.623 905.671 247.588C909.177 244.758 915.96 241.374 920.168 240.355C924.558 239.292 932.298 239.367 936.79 240.516C938.752 241.018 941.924 242.215 943.839 243.177C947.55 245.04 952.933 249.04 953.728 250.525C953.992 251.019 954.467 251.417 954.782 251.411C956.974 251.368 974.118 235.092 980.61 226.891L984.499 221.978L982.418 219.8C975.763 212.835 972.661 205.821 972.254 196.821C971.951 190.099 972.868 185.518 975.662 179.802C981.519 167.822 992.122 160.829 1005.91 159.856L1009.88 159.576L1010.14 158.106C1011.37 151.324 1011.64 131.391 1010.6 124.371L1010.31 122.361L935.085 122.48L859.863 122.6V142.928V163.256L903.274 163.377L946.685 163.497L946.363 164.965C945.371 169.483 939.79 180.156 935.118 186.474C932.224 190.387 922.811 199.914 919.192 202.593C910.071 209.345 898.223 214.595 886.634 217.022C882.373 217.914 880.099 218.076 871.681 218.084C863.015 218.093 861.093 217.952 856.553 216.979C828.556 210.981 807.288 192.862 797.509 166.675C793.151 155.006 791.607 142.109 793.166 130.4C795.843 110.294 804.307 93.9103 818.82 80.7467C829.366 71.1803 844.009 64.0844 858.208 61.6593C882.688 57.4774 907.587 64.9472 925.724 81.9139L930.07 85.9805L950.869 85.9526L971.666 85.9252L971.674 82.5162C971.695 73.9775 975.171 65.3518 981.183 58.9188L983.844 56.0705L980.008 51.2797C973.853 43.5905 963.145 33.2502 955.706 27.8108L954.164 26.6838L952.16 28.6117C944.776 35.7165 937.067 38.8901 927.229 38.8745C921.103 38.865 917.671 38.1204 912.276 35.6305C900.383 30.1419 892.246 17.7206 892.246 5.05676C892.246 0.729274 892.856 1.11788 884.918 0.396469C879.057 -0.13584 862.54 -0.131113 857.464 0.404505Z" fill="#61A75E"/>
<path d="M1673.69 535.797V373.797H1703.29V515.397H1742.49V535.797H1673.69Z" fill="#FAFAFA"/>
<path d="M1561 535.797L1593.4 373.797H1625L1657.4 535.797H1630L1623.6 498.397H1595.4L1588.8 535.797H1561ZM1598.4 479.597H1620.4L1609.4 411.597L1598.4 479.597Z" fill="#FAFAFA"/>
<path d="M1514.92 535.797V373.797H1544.12V535.797H1514.92Z" fill="#FAFAFA"/>
<path d="M1402.01 535.797V373.797H1440.81C1451.74 373.797 1460.94 375.13 1468.41 377.797C1476.01 380.33 1481.74 384.73 1485.61 390.997C1489.61 397.264 1491.61 405.797 1491.61 416.597C1491.61 423.13 1491.01 428.997 1489.81 434.197C1488.61 439.397 1486.54 443.864 1483.61 447.597C1480.81 451.197 1476.88 453.997 1471.81 455.997L1494.41 535.797H1464.81L1445.21 461.597H1431.61V535.797H1402.01ZM1431.61 442.997H1440.81C1446.54 442.997 1451.08 442.197 1454.41 440.597C1457.88 438.864 1460.34 436.197 1461.81 432.597C1463.28 428.864 1464.01 424.13 1464.01 418.397C1464.01 410.264 1462.48 404.197 1459.41 400.197C1456.48 396.064 1450.81 393.997 1442.41 393.997H1431.61V442.997Z" fill="#FAFAFA"/>
<path d="M1332.27 535.797V395.597H1306.47V373.797H1387.27V395.597H1361.87V535.797H1332.27Z" fill="#FAFAFA"/>
<path d="M1258.04 538C1248.31 538 1240.18 536.133 1233.64 532.4C1227.11 528.533 1222.18 522.933 1218.84 515.6C1215.51 508.267 1213.64 499.267 1213.24 488.6L1238.64 483.6C1238.91 489.867 1239.64 495.4 1240.84 500.2C1242.18 505 1244.11 508.733 1246.64 511.4C1249.31 513.933 1252.78 515.2 1257.04 515.2C1261.84 515.2 1265.24 513.8 1267.24 511C1269.24 508.067 1270.24 504.4 1270.24 500C1270.24 492.933 1268.64 487.133 1265.44 482.6C1262.24 478.067 1257.98 473.533 1252.64 469L1232.24 451C1226.51 446.067 1221.91 440.6 1218.44 434.6C1215.11 428.467 1213.44 420.933 1213.44 412C1213.44 399.2 1217.18 389.333 1224.64 382.4C1232.11 375.467 1242.31 372 1255.24 372C1262.84 372 1269.18 373.2 1274.24 375.6C1279.31 377.867 1283.31 381.067 1286.24 385.2C1289.31 389.333 1291.58 394.067 1293.04 399.4C1294.51 404.6 1295.44 410.133 1295.84 416L1270.64 420.4C1270.38 415.333 1269.78 410.8 1268.84 406.8C1268.04 402.8 1266.51 399.667 1264.24 397.4C1262.11 395.133 1258.91 394 1254.64 394C1250.24 394 1246.84 395.467 1244.44 398.4C1242.18 401.2 1241.04 404.733 1241.04 409C1241.04 414.467 1242.18 419 1244.44 422.6C1246.71 426.067 1249.98 429.667 1254.24 433.4L1274.44 451.2C1281.11 456.8 1286.78 463.4 1291.44 471C1296.24 478.467 1298.64 487.533 1298.64 498.2C1298.64 505.933 1296.91 512.8 1293.44 518.8C1290.11 524.8 1285.38 529.533 1279.24 533C1273.24 536.333 1266.18 538 1258.04 538Z" fill="#FAFAFA"/>
<path d="M1148.36 537.997C1136.36 537.997 1127.03 535.797 1120.36 531.397C1113.7 526.997 1109.1 520.73 1106.56 512.597C1104.03 504.464 1102.76 494.73 1102.76 483.397V373.797H1131.56V486.797C1131.56 491.864 1131.9 496.664 1132.56 501.197C1133.23 505.597 1134.76 509.197 1137.16 511.997C1139.7 514.664 1143.43 515.997 1148.36 515.997C1153.56 515.997 1157.3 514.664 1159.56 511.997C1161.96 509.197 1163.5 505.597 1164.16 501.197C1164.96 496.664 1165.36 491.864 1165.36 486.797V373.797H1193.96V483.397C1193.96 494.73 1192.7 504.464 1190.16 512.597C1187.63 520.73 1183.03 526.997 1176.36 531.397C1169.83 535.797 1160.5 537.997 1148.36 537.997Z" fill="#FAFAFA"/>
<path d="M992.635 535.797V373.797H1030.83C1044.03 373.797 1054.3 375.597 1061.63 379.197C1069.1 382.797 1074.37 388.33 1077.43 395.797C1080.63 403.264 1082.23 412.73 1082.23 424.197V483.397C1082.23 495.13 1080.63 504.93 1077.43 512.797C1074.37 520.53 1069.17 526.33 1061.83 530.197C1054.63 533.93 1044.7 535.797 1032.03 535.797H992.635ZM1022.23 515.197H1031.23C1038.03 515.197 1042.9 513.997 1045.83 511.597C1048.77 509.197 1050.57 505.73 1051.23 501.197C1051.9 496.53 1052.23 490.864 1052.23 484.197V422.197C1052.23 415.664 1051.77 410.397 1050.83 406.397C1049.9 402.397 1047.97 399.464 1045.03 397.597C1042.1 395.73 1037.37 394.797 1030.83 394.797H1022.23V515.197Z" fill="#FAFAFA"/>
<path d="M883.65 535.797V373.797H904.25L943.65 466.197V373.797H968.05V535.797H948.45L908.85 438.997V535.797H883.65Z" fill="#FAFAFA"/>
<path d="M829.372 535.797V373.797H858.572V535.797H829.372Z" fill="#FAFAFA"/>
<path d="M689.378 535.797V516.797L732.978 394.197H691.778V373.797H762.778V388.997L717.578 515.397H762.978V535.797H689.378Z" fill="#FAFAFA"/>
<path d="M609.432 535.797V373.797H677.432V394.597H639.032V441.197H669.232V461.797H639.032V515.397H677.832V535.797H609.432Z" fill="#FAFAFA"/>
<path d="M525.252 535.797V373.797H554.852V515.397H594.052V535.797H525.252Z" fill="#FAFAFA"/>
<path d="M412.56 535.797L444.96 373.797H476.56L508.96 535.797H481.56L475.16 498.397H446.96L440.36 535.797H412.56ZM449.96 479.597H471.96L460.96 411.597L449.96 479.597Z" fill="#FAFAFA"/>
<path d="M330.199 535.797V516.797L373.799 394.197H332.599V373.797H403.599V388.997L358.399 515.397H403.799V535.797H330.199Z" fill="#FAFAFA"/>
<path d="M226.814 535.797V373.797H247.414L286.814 466.197V373.797H311.214V535.797H291.614L252.014 438.997V535.797H226.814Z" fill="#FAFAFA"/>
<path d="M158.119 538C146.652 538 137.519 535.867 130.719 531.6C123.919 527.333 119.052 521.2 116.119 513.2C113.185 505.2 111.719 495.733 111.719 484.8V424.2C111.719 413.267 113.185 403.933 116.119 396.2C119.052 388.333 123.919 382.333 130.719 378.2C137.519 374.067 146.652 372 158.119 372C169.852 372 179.052 374.067 185.719 378.2C192.519 382.333 197.385 388.333 200.319 396.2C203.385 403.933 204.919 413.267 204.919 424.2V485C204.919 495.8 203.385 505.2 200.319 513.2C197.385 521.067 192.519 527.2 185.719 531.6C179.052 535.867 169.852 538 158.119 538ZM158.119 516.2C163.052 516.2 166.652 515.133 168.919 513C171.319 510.867 172.919 507.933 173.719 504.2C174.519 500.467 174.919 496.4 174.919 492V417.4C174.919 412.867 174.519 408.8 173.719 405.2C172.919 401.6 171.319 398.8 168.919 396.8C166.652 394.667 163.052 393.6 158.119 393.6C153.452 393.6 149.919 394.667 147.519 396.8C145.119 398.8 143.519 401.6 142.719 405.2C141.919 408.8 141.519 412.867 141.519 417.4V492C141.519 496.4 141.852 500.467 142.519 504.2C143.319 507.933 144.919 510.867 147.319 513C149.719 515.133 153.319 516.2 158.119 516.2Z" fill="#FAFAFA"/>
<path d="M43 538C32.3333 538 23.8667 535.733 17.6 531.2C11.3333 526.667 6.8 520.267 4 512C1.33333 503.6 0 493.733 0 482.4V428C0 416.4 1.33333 406.4 4 398C6.66667 389.6 11.3333 383.2 18 378.8C24.8 374.267 34.1333 372 46 372C57.0667 372 65.8667 373.867 72.4 377.6C78.9333 381.333 83.6 386.733 86.4 393.8C89.3333 400.733 90.8 409.2 90.8 419.2V427.6H62.6V418.4C62.6 413.2 62.2 408.733 61.4 405C60.7333 401.267 59.2667 398.467 57 396.6C54.8667 394.6 51.3333 393.6 46.4 393.6C41.2 393.6 37.4 394.867 35 397.4C32.7333 399.933 31.2667 403.267 30.6 407.4C30.0667 411.533 29.8 416.067 29.8 421V488.8C29.8 494.4 30.2667 499.267 31.2 503.4C32.1333 507.533 33.8667 510.733 36.4 513C38.9333 515.133 42.5333 516.2 47.2 516.2C52 516.2 55.6667 515 58.2 512.6C60.7333 510.2 62.4667 506.867 63.4 502.6C64.4667 498.333 65 493.267 65 487.4V472.2H47.6V453.6H91.6V535.8H72.6L70.4 519.8C68.2667 525.133 65 529.533 60.6 533C56.3333 536.333 50.4667 538 43 538Z" fill="#FAFAFA"/>
</svg>
