<svg width="1379" height="379" viewBox="0 0 1379 379" fill="none" xmlns="http://www.w3.org/2000/svg">
<path fill-rule="evenodd" clip-rule="evenodd" d="M167.285 4.53934C164.833 4.7984 161.641 5.21 160.194 5.45457L157.562 5.89957V10.7858C157.562 24.8515 149.445 39.961 137.562 48.0147C128.6 54.0879 121.092 56.4169 110.603 56.3772C97.7517 56.3287 87.795 52.3293 78.3206 43.4102L75.0335 40.3153L72.3326 42.4105C60.1389 51.8672 44.1917 67.9676 37.6074 77.4691L35.8551 79.9973L39.407 83.6942C48.2384 92.8849 52.8681 105.572 52.1244 118.542C51.0932 136.515 39.54 152.594 22.8483 159.29C18.0818 161.201 10.441 162.739 5.70857 162.739C1.93482 162.739 1.92852 162.743 1.58499 164.788C-0.539199 177.449 -0.526608 200.671 1.61271 215.44L1.98839 218.03L7.78548 218.437C30.3977 220.027 47.8369 235.296 52.0399 257.186C54.7875 271.495 50.3431 286.169 39.7524 297.757L36.6613 301.139L38.3341 303.362C45.5999 313.023 60.4881 328.15 70.1705 335.71C73.094 337.993 75.689 339.86 75.9368 339.86C76.1851 339.86 77.9885 338.396 79.9437 336.605C97.4453 320.579 121.896 319.482 141.03 333.865C151.402 341.662 158.823 356.52 158.823 369.493V374.342L166.544 375.19C176.194 376.25 195.899 376.274 205.466 375.236C215.748 374.122 214.921 374.7 214.921 368.616C214.921 355.999 221.595 342.164 231.561 334.118C236.236 330.344 245.28 325.832 250.89 324.474C256.745 323.057 267.064 323.156 273.054 324.689C275.669 325.357 279.898 326.954 282.452 328.235C287.4 330.72 294.577 336.053 295.637 338.033C295.989 338.692 296.622 339.223 297.043 339.215C299.965 339.157 322.823 317.456 331.48 306.521L336.665 299.971L333.89 297.066C325.018 287.781 320.881 278.428 320.339 266.428C319.934 257.465 321.157 251.357 324.883 243.736C332.692 227.762 346.83 218.439 365.208 217.141L370.505 216.768L370.858 214.809C372.488 205.765 372.85 179.188 371.471 169.829L371.075 167.148L270.779 167.307L170.483 167.467V194.571V221.675L228.365 221.835L286.247 221.996L285.817 223.954C284.494 229.977 277.054 244.207 270.824 252.632C266.965 257.85 254.415 270.552 249.589 274.124C237.428 283.126 221.631 290.127 206.179 293.363C200.498 294.552 197.465 294.768 186.242 294.778C174.686 294.79 172.124 294.603 166.071 293.306C128.741 285.308 100.385 261.149 87.345 226.234C81.534 210.674 79.4754 193.479 81.5542 177.867C85.1237 151.058 96.4097 129.214 115.76 111.662C129.822 98.9071 149.346 89.4459 168.277 86.2123C200.917 80.6365 234.117 90.5962 258.298 113.219L264.094 118.641L291.825 118.603L319.555 118.567L319.566 114.022C319.594 102.637 324.228 91.1358 332.244 82.5583L335.792 78.7606L330.678 72.3729C322.47 62.1207 308.193 48.3336 298.274 41.0811L296.219 39.5784L293.547 42.1489C283.702 51.622 273.422 55.8534 260.305 55.8326C252.137 55.82 247.561 54.8272 240.368 51.5073C224.511 44.1893 213.661 27.6275 213.661 10.7424C213.661 4.97236 214.475 5.4905 203.891 4.52863C196.076 3.81888 174.054 3.82518 167.285 4.53934Z" fill="#15401A"/>
<path d="M1309.84 376.8V214.8H1339.44V356.4H1378.64V376.8H1309.84Z" fill="#1A1A1A"/>
<path d="M1197.15 376.8L1229.55 214.8H1261.15L1293.55 376.8H1266.15L1259.75 339.4H1231.55L1224.95 376.8H1197.15ZM1234.55 320.6H1256.55L1245.55 252.6L1234.55 320.6Z" fill="#1A1A1A"/>
<path d="M1151.07 376.8V214.8H1180.27V376.8H1151.07Z" fill="#1A1A1A"/>
<path d="M1038.16 376.8V214.8H1076.96C1087.89 214.8 1097.09 216.133 1104.56 218.8C1112.16 221.333 1117.89 225.733 1121.76 232C1125.76 238.266 1127.76 246.8 1127.76 257.6C1127.76 264.133 1127.16 270 1125.96 275.2C1124.76 280.4 1122.69 284.866 1119.76 288.6C1116.96 292.2 1113.03 295 1107.96 297L1130.56 376.8H1100.96L1081.36 302.6H1067.76V376.8H1038.16ZM1067.76 284H1076.96C1082.69 284 1087.23 283.2 1090.56 281.6C1094.03 279.866 1096.49 277.2 1097.96 273.6C1099.43 269.866 1100.16 265.133 1100.16 259.4C1100.16 251.266 1098.63 245.2 1095.56 241.2C1092.63 237.066 1086.96 235 1078.56 235H1067.76V284Z" fill="#1A1A1A"/>
<path d="M968.422 376.8V236.6H942.622V214.8H1023.42V236.6H998.022V376.8H968.422Z" fill="#1A1A1A"/>
<path d="M894.194 379C884.461 379 876.327 377.133 869.794 373.4C863.261 369.533 858.327 363.933 854.994 356.6C851.661 349.267 849.794 340.267 849.394 329.6L874.794 324.6C875.061 330.867 875.794 336.4 876.994 341.2C878.327 346 880.261 349.733 882.794 352.4C885.461 354.933 888.927 356.2 893.194 356.2C897.994 356.2 901.394 354.8 903.394 352C905.394 349.067 906.394 345.4 906.394 341C906.394 333.933 904.794 328.133 901.594 323.6C898.394 319.067 894.127 314.533 888.794 310L868.394 292C862.661 287.067 858.061 281.6 854.594 275.6C851.261 269.467 849.594 261.933 849.594 253C849.594 240.2 853.327 230.333 860.794 223.4C868.261 216.467 878.461 213 891.394 213C898.994 213 905.327 214.2 910.394 216.6C915.461 218.867 919.461 222.067 922.394 226.2C925.461 230.333 927.727 235.067 929.194 240.4C930.661 245.6 931.594 251.133 931.994 257L906.794 261.4C906.527 256.333 905.927 251.8 904.994 247.8C904.194 243.8 902.661 240.667 900.394 238.4C898.261 236.133 895.061 235 890.794 235C886.394 235 882.994 236.467 880.594 239.4C878.327 242.2 877.194 245.733 877.194 250C877.194 255.467 878.327 260 880.594 263.6C882.861 267.067 886.127 270.667 890.394 274.4L910.594 292.2C917.261 297.8 922.927 304.4 927.594 312C932.394 319.467 934.794 328.533 934.794 339.2C934.794 346.933 933.061 353.8 929.594 359.8C926.261 365.8 921.527 370.533 915.394 374C909.394 377.333 902.327 379 894.194 379Z" fill="#1A1A1A"/>
<path d="M784.513 379C772.513 379 763.179 376.8 756.513 372.4C749.846 368 745.246 361.733 742.713 353.6C740.179 345.466 738.913 335.733 738.913 324.4V214.8H767.713V327.8C767.713 332.866 768.046 337.666 768.713 342.2C769.379 346.6 770.913 350.2 773.313 353C775.846 355.666 779.579 357 784.513 357C789.713 357 793.446 355.666 795.713 353C798.113 350.2 799.646 346.6 800.313 342.2C801.113 337.666 801.513 332.866 801.513 327.8V214.8H830.113V324.4C830.113 335.733 828.846 345.466 826.313 353.6C823.779 361.733 819.179 368 812.513 372.4C805.979 376.8 796.646 379 784.513 379Z" fill="#1A1A1A"/>
<path d="M628.785 376.8V214.8H666.985C680.185 214.8 690.451 216.6 697.785 220.2C705.251 223.8 710.518 229.333 713.585 236.8C716.785 244.266 718.385 253.733 718.385 265.2V324.4C718.385 336.133 716.785 345.933 713.585 353.8C710.518 361.533 705.318 367.333 697.985 371.2C690.785 374.933 680.851 376.8 668.185 376.8H628.785ZM658.385 356.2H667.385C674.185 356.2 679.051 355 681.985 352.6C684.918 350.2 686.718 346.733 687.385 342.2C688.051 337.533 688.385 331.866 688.385 325.2V263.2C688.385 256.666 687.918 251.4 686.985 247.4C686.051 243.4 684.118 240.466 681.185 238.6C678.251 236.733 673.518 235.8 666.985 235.8H658.385V356.2Z" fill="#1A1A1A"/>
<path d="M519.8 376.8V214.8H540.4L579.8 307.2V214.8H604.2V376.8H584.6L545 280V376.8H519.8Z" fill="#1A1A1A"/>
<path d="M465.522 376.8V214.8H494.722V376.8H465.522Z" fill="#1A1A1A"/>
<path d="M1154.7 163.8V144.8L1198.3 22.1998H1157.1V1.7998H1228.1V16.9998L1182.9 143.4H1228.3V163.8H1154.7Z" fill="#1A1A1A"/>
<path d="M1074.75 163.8V1.7998H1142.75V22.5998H1104.35V69.1998H1134.55V89.7998H1104.35V143.4H1143.15V163.8H1074.75Z" fill="#1A1A1A"/>
<path d="M990.574 163.8V1.7998H1020.17V143.4H1059.37V163.8H990.574Z" fill="#1A1A1A"/>
<path d="M877.881 163.8L910.281 1.7998H941.881L974.281 163.8H946.881L940.481 126.4H912.281L905.681 163.8H877.881ZM915.281 107.6H937.281L926.281 39.5998L915.281 107.6Z" fill="#1A1A1A"/>
<path d="M795.521 163.8V144.8L839.121 22.1998H797.921V1.7998H868.921V16.9998L823.72 143.4H869.121V163.8H795.521Z" fill="#1A1A1A"/>
<path d="M692.136 163.8V1.7998H712.736L752.136 94.1998V1.7998H776.536V163.8H756.936L717.336 66.9998V163.8H692.136Z" fill="#1A1A1A"/>
<path d="M623.441 166C611.974 166 602.841 163.867 596.041 159.6C589.241 155.333 584.374 149.2 581.441 141.2C578.507 133.2 577.041 123.733 577.041 112.8V52.2C577.041 41.2667 578.507 31.9333 581.441 24.2C584.374 16.3333 589.241 10.3333 596.041 6.2C602.841 2.06667 611.974 0 623.441 0C635.174 0 644.374 2.06667 651.041 6.2C657.841 10.3333 662.707 16.3333 665.641 24.2C668.707 31.9333 670.241 41.2667 670.241 52.2V113C670.241 123.8 668.707 133.2 665.641 141.2C662.707 149.067 657.841 155.2 651.041 159.6C644.374 163.867 635.174 166 623.441 166ZM623.441 144.2C628.374 144.2 631.974 143.133 634.241 141C636.641 138.867 638.241 135.933 639.041 132.2C639.841 128.467 640.241 124.4 640.241 120V45.4C640.241 40.8667 639.841 36.8 639.041 33.2C638.241 29.6 636.641 26.8 634.241 24.8C631.974 22.6667 628.374 21.6 623.441 21.6C618.774 21.6 615.241 22.6667 612.841 24.8C610.441 26.8 608.841 29.6 608.041 33.2C607.241 36.8 606.841 40.8667 606.841 45.4V120C606.841 124.4 607.174 128.467 607.841 132.2C608.641 135.933 610.241 138.867 612.641 141C615.041 143.133 618.641 144.2 623.441 144.2Z" fill="#1A1A1A"/>
<path d="M508.322 166C497.655 166 489.188 163.733 482.922 159.2C476.655 154.667 472.122 148.267 469.322 140C466.655 131.6 465.322 121.733 465.322 110.4V56C465.322 44.4 466.655 34.4 469.322 26C471.988 17.6 476.655 11.2 483.322 6.8C490.122 2.26666 499.455 0 511.322 0C522.388 0 531.188 1.86667 537.722 5.60001C544.255 9.33334 548.922 14.7333 551.722 21.8C554.655 28.7333 556.122 37.2 556.122 47.2V55.6H527.922V46.4C527.922 41.2 527.522 36.7333 526.722 33C526.055 29.2667 524.588 26.4667 522.322 24.6C520.188 22.6 516.655 21.6 511.722 21.6C506.522 21.6 502.722 22.8667 500.322 25.4C498.055 27.9333 496.588 31.2667 495.922 35.4C495.388 39.5333 495.122 44.0667 495.122 49V116.8C495.122 122.4 495.588 127.267 496.522 131.4C497.455 135.533 499.188 138.733 501.722 141C504.255 143.133 507.855 144.2 512.522 144.2C517.322 144.2 520.988 143 523.522 140.6C526.055 138.2 527.788 134.867 528.722 130.6C529.788 126.333 530.322 121.267 530.322 115.4V100.2H512.922V81.6H556.922V163.8H537.922L535.722 147.8C533.588 153.133 530.322 157.533 525.922 161C521.655 164.333 515.788 166 508.322 166Z" fill="#1A1A1A"/>
</svg>
