<svg width="373" height="372" viewBox="0 0 373 372" fill="none" xmlns="http://www.w3.org/2000/svg">
<path fill-rule="evenodd" clip-rule="evenodd" d="M167.285 0.53934C164.833 0.798403 161.641 1.21 160.194 1.45457L157.562 1.89957V6.78585C157.562 20.8515 149.445 35.961 137.562 44.0147C128.6 50.0879 121.092 52.4169 110.603 52.3772C97.7517 52.3287 87.795 48.3293 78.3206 39.4102L75.0335 36.3153L72.3326 38.4105C60.1389 47.8672 44.1917 63.9676 37.6074 73.4691L35.8551 75.9973L39.407 79.6942C48.2384 88.8849 52.8681 101.572 52.1244 114.542C51.0932 132.515 39.54 148.594 22.8483 155.29C18.0818 157.201 10.441 158.739 5.70857 158.739C1.93482 158.739 1.92852 158.743 1.58499 160.788C-0.539199 173.449 -0.526608 196.671 1.61271 211.44L1.98839 214.03L7.78548 214.437C30.3977 216.027 47.8369 231.296 52.0399 253.186C54.7875 267.495 50.3431 282.169 39.7524 293.757L36.6613 297.139L38.3341 299.362C45.5999 309.023 60.4881 324.15 70.1705 331.71C73.094 333.993 75.689 335.86 75.9368 335.86C76.1851 335.86 77.9885 334.396 79.9437 332.605C97.4453 316.579 121.896 315.482 141.03 329.865C151.402 337.662 158.823 352.52 158.823 365.493V370.342L166.544 371.19C176.194 372.25 195.899 372.274 205.466 371.236C215.748 370.122 214.921 370.7 214.921 364.616C214.921 351.999 221.595 338.164 231.561 330.118C236.236 326.344 245.28 321.832 250.89 320.474C256.745 319.057 267.064 319.156 273.054 320.689C275.669 321.357 279.898 322.954 282.452 324.235C287.4 326.72 294.577 332.053 295.637 334.033C295.989 334.692 296.622 335.223 297.043 335.215C299.965 335.157 322.823 313.456 331.48 302.521L336.665 295.971L333.89 293.066C325.018 283.781 320.881 274.428 320.339 262.428C319.934 253.465 321.157 247.357 324.883 239.736C332.692 223.762 346.83 214.439 365.208 213.141L370.505 212.768L370.858 210.809C372.488 201.765 372.85 175.188 371.471 165.829L371.075 163.148L270.779 163.307L170.483 163.467V190.571V217.675L228.365 217.835L286.247 217.996L285.817 219.954C284.494 225.977 277.054 240.207 270.824 248.632C266.965 253.85 254.415 266.552 249.589 270.124C237.428 279.126 221.631 286.127 206.179 289.363C200.498 290.552 197.465 290.768 186.242 290.778C174.686 290.79 172.124 290.603 166.071 289.306C128.741 281.308 100.385 257.149 87.345 222.234C81.534 206.674 79.4754 189.479 81.5542 173.867C85.1237 147.058 96.4097 125.214 115.76 107.662C129.822 94.9071 149.346 85.4459 168.277 82.2123C200.917 76.6365 234.117 86.5962 258.298 109.219L264.094 114.641L291.825 114.603L319.555 114.567L319.566 110.022C319.594 98.6367 324.228 87.1358 332.244 78.5583L335.792 74.7606L330.678 68.3729C322.47 58.1207 308.193 44.3336 298.274 37.0811L296.219 35.5784L293.547 38.1489C283.702 47.622 273.422 51.8534 260.305 51.8326C252.137 51.82 247.561 50.8272 240.368 47.5073C224.511 40.1893 213.661 23.6275 213.661 6.74235C213.661 0.972365 214.475 1.4905 203.891 0.528625C196.076 -0.18112 174.054 -0.174818 167.285 0.53934Z" fill="#15401A"/>
</svg>
