<svg width="1953" height="186" viewBox="0 0 1953 186" fill="none" xmlns="http://www.w3.org/2000/svg">
<path d="M1875.34 183.531V2.01337H1908.51V160.674H1952.43V183.531H1875.34Z" fill="#FAFAFA"/>
<path d="M1749.07 183.531L1785.37 2.01337H1820.78L1857.08 183.531H1826.38L1819.21 141.625H1787.61L1780.22 183.531H1749.07ZM1790.98 120.56H1815.63L1803.3 44.3676L1790.98 120.56Z" fill="#FAFAFA"/>
<path d="M1697.44 183.531V2.01337H1730.16V183.531H1697.44Z" fill="#FAFAFA"/>
<path d="M1570.93 183.531V2.01337H1614.4C1626.65 2.01337 1636.96 3.50735 1645.33 6.4953C1653.84 9.33386 1660.27 14.264 1664.6 21.2857C1669.08 28.3073 1671.32 37.8688 1671.32 49.97C1671.32 57.2905 1670.65 63.864 1669.31 69.6905C1667.96 75.517 1665.64 80.5218 1662.36 84.705C1659.22 88.7387 1654.81 91.876 1649.14 94.117L1674.46 183.531H1641.29L1619.33 100.392H1604.09V183.531H1570.93ZM1604.09 79.5507H1614.4C1620.83 79.5507 1625.91 78.6544 1629.64 76.8616C1633.52 74.9194 1636.29 71.9314 1637.93 67.8977C1639.58 63.7146 1640.4 58.411 1640.4 51.9869C1640.4 42.8736 1638.68 36.076 1635.24 31.5941C1631.96 26.9628 1625.61 24.6471 1616.19 24.6471H1604.09V79.5507Z" fill="#FAFAFA"/>
<path d="M1492.79 183.531V26.4399H1463.88V2.01337H1554.41V26.4399H1525.95V183.531H1492.79Z" fill="#FAFAFA"/>
<path d="M1409.62 186C1398.71 186 1389.6 183.908 1382.28 179.725C1374.96 175.393 1369.43 169.118 1365.69 160.901C1361.96 152.684 1359.87 142.6 1359.42 130.648L1387.88 125.046C1388.18 132.067 1389 138.267 1390.34 143.646C1391.84 149.024 1394 153.207 1396.84 156.195C1399.83 159.034 1403.71 160.453 1408.5 160.453C1413.87 160.453 1417.68 158.884 1419.92 155.747C1422.16 152.46 1423.29 148.352 1423.29 143.422C1423.29 135.504 1421.49 129.005 1417.91 123.925C1414.32 118.846 1409.54 113.766 1403.56 108.687L1380.71 88.5181C1374.28 82.9904 1369.13 76.8651 1365.24 70.1422C1361.51 63.2699 1359.64 54.8289 1359.64 44.8193C1359.64 30.4771 1363.83 19.4217 1372.19 11.653C1380.56 3.88434 1391.99 0 1406.48 0C1414.99 0 1422.09 1.34458 1427.77 4.03373C1433.44 6.5735 1437.93 10.159 1441.21 14.7904C1444.65 19.4217 1447.19 24.7253 1448.83 30.7012C1450.48 36.5277 1451.52 42.7277 1451.97 49.3012L1423.73 54.2313C1423.43 48.5542 1422.76 43.4747 1421.72 38.9928C1420.82 34.5109 1419.1 31 1416.56 28.4602C1414.17 25.9205 1410.59 24.6506 1405.81 24.6506C1400.88 24.6506 1397.07 26.294 1394.38 29.5807C1391.84 32.7181 1390.57 36.6771 1390.57 41.4578C1390.57 47.5831 1391.84 52.6626 1394.38 56.6964C1396.92 60.5807 1400.58 64.6145 1405.36 68.7976L1427.99 88.7422C1435.46 95.0169 1441.81 102.412 1447.04 110.928C1452.42 119.294 1455.11 129.453 1455.11 141.405C1455.11 150.07 1453.17 157.764 1449.28 164.487C1445.55 171.21 1440.24 176.513 1433.37 180.398C1426.65 184.133 1418.73 186 1409.62 186Z" fill="#FAFAFA"/>
<path d="M1286.72 185.996C1273.27 185.996 1262.82 183.531 1255.35 178.601C1247.88 173.671 1242.72 166.65 1239.88 157.536C1237.05 148.423 1235.63 137.517 1235.63 124.818V2.01337H1267.9V128.628C1267.9 134.305 1268.27 139.683 1269.02 144.763C1269.76 149.693 1271.48 153.727 1274.17 156.864C1277.01 159.852 1281.19 161.346 1286.72 161.346C1292.55 161.346 1296.73 159.852 1299.27 156.864C1301.96 153.727 1303.68 149.693 1304.42 144.763C1305.32 139.683 1305.77 134.305 1305.77 128.628V2.01337H1337.81V124.818C1337.81 137.517 1336.39 148.423 1333.56 157.536C1330.72 166.65 1325.56 173.671 1318.09 178.601C1310.77 183.531 1300.32 185.996 1286.72 185.996Z" fill="#FAFAFA"/>
<path d="M1112.23 183.531V2.01337H1155.03C1169.82 2.01337 1181.33 4.03023 1189.54 8.06397C1197.91 12.0977 1203.81 18.2977 1207.25 26.664C1210.83 35.0302 1212.62 45.6375 1212.62 58.4857V124.818C1212.62 137.965 1210.83 148.946 1207.25 157.76C1203.81 166.425 1197.98 172.924 1189.77 177.257C1181.7 181.44 1170.57 183.531 1156.38 183.531H1112.23ZM1145.4 160.45H1155.48C1163.1 160.45 1168.55 159.105 1171.84 156.416C1175.13 153.727 1177.14 149.842 1177.89 144.763C1178.64 139.534 1179.01 133.184 1179.01 125.715V56.2447C1179.01 48.9242 1178.49 43.023 1177.44 38.5411C1176.4 34.0592 1174.23 30.7724 1170.94 28.6808C1167.66 26.5893 1162.35 25.5435 1155.03 25.5435H1145.4V160.45Z" fill="#FAFAFA"/>
<path d="M990.114 183.531V2.01337H1013.2L1057.34 105.546V2.01337H1084.68V183.531H1062.72L1018.35 75.0688V183.531H990.114Z" fill="#FAFAFA"/>
<path d="M929.297 183.531V2.01337H962.015V183.531H929.297Z" fill="#FAFAFA"/>
<path d="M772.436 183.531V162.242L821.289 24.8712H775.125V2.01337H854.679V19.0447L804.034 160.674H854.904V183.531H772.436Z" fill="#FAFAFA"/>
<path d="M682.857 183.531V2.01337H759.05V25.3194H716.023V77.5339H749.862V100.616H716.023V160.674H759.498V183.531H682.857Z" fill="#FAFAFA"/>
<path d="M588.535 183.531V2.01337H621.701V160.674H665.624V183.531H588.535Z" fill="#FAFAFA"/>
<path d="M462.266 183.531L498.569 2.01337H533.976L570.28 183.531H539.579L532.408 141.625H500.81L493.415 183.531H462.266ZM504.172 120.56H528.822L516.497 44.3676L504.172 120.56Z" fill="#FAFAFA"/>
<path d="M369.982 183.531V162.242L418.835 24.8712H372.671V2.01337H452.225V19.0447L401.58 160.674H452.449V183.531H369.982Z" fill="#FAFAFA"/>
<path d="M254.142 183.531V2.01337H277.224L321.371 105.546V2.01337H348.71V183.531H326.749L282.378 75.0688V183.531H254.142Z" fill="#FAFAFA"/>
<path d="M178.749 186C165.9 186 155.667 183.61 148.047 178.829C140.428 174.048 134.975 167.176 131.688 158.212C128.402 149.248 126.758 138.641 126.758 126.39V58.4892C126.758 46.2386 128.402 35.7807 131.688 27.1157C134.975 18.3012 140.428 11.5783 148.047 6.94699C155.667 2.31567 165.9 0 178.749 0C191.896 0 202.204 2.31567 209.674 6.94699C217.293 11.5783 222.746 18.3012 226.033 27.1157C229.469 35.7807 231.187 46.2386 231.187 58.4892V126.614C231.187 138.716 229.469 149.248 226.033 158.212C222.746 167.027 217.293 173.899 209.674 178.829C202.204 183.61 191.896 186 178.749 186ZM178.749 161.574C184.276 161.574 188.31 160.378 190.85 157.988C193.539 155.598 195.332 152.311 196.228 148.128C197.125 143.945 197.573 139.388 197.573 134.458V50.8699C197.573 45.7904 197.125 41.2337 196.228 37.2C195.332 33.1663 193.539 30.0289 190.85 27.788C188.31 25.3976 184.276 24.2024 178.749 24.2024C173.52 24.2024 169.561 25.3976 166.872 27.788C164.182 30.0289 162.39 33.1663 161.493 37.2C160.597 41.2337 160.149 45.7904 160.149 50.8699V134.458C160.149 139.388 160.522 143.945 161.269 148.128C162.166 152.311 163.958 155.598 166.647 157.988C169.337 160.378 173.37 161.574 178.749 161.574Z" fill="#FAFAFA"/>
<path d="M48.1807 186C36.2289 186 26.7422 183.46 19.7205 178.381C12.6988 173.301 7.61928 166.13 4.48193 156.867C1.49398 147.455 0 136.4 0 123.701V62.747C0 49.7494 1.49398 38.5446 4.48193 29.1325C7.46988 19.7205 12.6988 12.5494 20.1687 7.61928C27.788 2.53976 38.2458 0 51.5422 0C63.9422 0 73.8024 2.09156 81.1229 6.27471C88.4434 10.4578 93.6723 16.5084 96.8096 24.4265C100.096 32.1952 101.74 41.6819 101.74 52.8868V62.2988H70.1422V51.9904C70.1422 46.1639 69.694 41.159 68.7976 36.9759C68.0506 32.7928 66.4072 29.6554 63.8675 27.5639C61.4771 25.3229 57.5181 24.2024 51.9904 24.2024C46.1639 24.2024 41.906 25.6217 39.2169 28.4602C36.6771 31.2988 35.0337 35.0337 34.2868 39.6651C33.6892 44.2964 33.3904 49.3759 33.3904 54.9036V130.872C33.3904 137.147 33.9133 142.6 34.959 147.231C36.0048 151.863 37.947 155.448 40.7855 157.988C43.6241 160.378 47.6578 161.574 52.8868 161.574C58.2651 161.574 62.3735 160.229 65.2121 157.54C68.0506 154.851 69.9928 151.116 71.0386 146.335C72.2337 141.554 72.8313 135.877 72.8313 129.304V112.272H53.3349V91.4313H102.636V183.535H81.347L78.8819 165.607C76.4916 171.583 72.8313 176.513 67.9012 180.398C63.1205 184.133 56.547 186 48.1807 186Z" fill="#FAFAFA"/>
</svg>
