<svg width="914" height="379" viewBox="0 0 914 379" fill="none" xmlns="http://www.w3.org/2000/svg">
<path d="M844.317 376.8V214.8H873.917V356.4H913.117V376.8H844.317Z" fill="#FAFAFA"/>
<path d="M731.625 376.8L764.025 214.8H795.625L828.025 376.8H800.625L794.225 339.4H766.025L759.425 376.8H731.625ZM769.025 320.6H791.025L780.025 252.6L769.025 320.6Z" fill="#FAFAFA"/>
<path d="M685.547 376.8V214.8H714.747V376.8H685.547Z" fill="#FAFAFA"/>
<path d="M572.638 376.8V214.8H611.438C622.371 214.8 631.571 216.133 639.038 218.8C646.638 221.333 652.371 225.733 656.238 232C660.238 238.266 662.238 246.8 662.238 257.6C662.238 264.133 661.638 270 660.438 275.2C659.238 280.4 657.171 284.866 654.238 288.6C651.438 292.2 647.504 295 642.438 297L665.038 376.8H635.438L615.838 302.6H602.238V376.8H572.638ZM602.238 284H611.438C617.171 284 621.704 283.2 625.038 281.6C628.504 279.866 630.971 277.2 632.438 273.6C633.904 269.866 634.638 265.133 634.638 259.4C634.638 251.266 633.104 245.2 630.038 241.2C627.104 237.066 621.438 235 613.038 235H602.238V284Z" fill="#FAFAFA"/>
<path d="M502.9 376.8V236.6H477.1V214.8H557.9V236.6H532.5V376.8H502.9Z" fill="#FAFAFA"/>
<path d="M428.672 379C418.939 379 410.805 377.133 404.272 373.4C397.739 369.533 392.805 363.933 389.472 356.6C386.139 349.267 384.272 340.267 383.872 329.6L409.272 324.6C409.539 330.867 410.272 336.4 411.472 341.2C412.805 346 414.739 349.733 417.272 352.4C419.939 354.933 423.405 356.2 427.672 356.2C432.472 356.2 435.872 354.8 437.872 352C439.872 349.067 440.872 345.4 440.872 341C440.872 333.933 439.272 328.133 436.072 323.6C432.872 319.067 428.605 314.533 423.272 310L402.872 292C397.139 287.067 392.539 281.6 389.072 275.6C385.739 269.467 384.072 261.933 384.072 253C384.072 240.2 387.805 230.333 395.272 223.4C402.739 216.467 412.939 213 425.872 213C433.472 213 439.805 214.2 444.872 216.6C449.939 218.867 453.939 222.067 456.872 226.2C459.939 230.333 462.205 235.067 463.672 240.4C465.139 245.6 466.072 251.133 466.472 257L441.272 261.4C441.005 256.333 440.405 251.8 439.472 247.8C438.672 243.8 437.139 240.667 434.872 238.4C432.739 236.133 429.539 235 425.272 235C420.872 235 417.472 236.467 415.072 239.4C412.805 242.2 411.672 245.733 411.672 250C411.672 255.467 412.805 260 415.072 263.6C417.339 267.067 420.605 270.667 424.872 274.4L445.072 292.2C451.739 297.8 457.405 304.4 462.072 312C466.872 319.467 469.272 328.533 469.272 339.2C469.272 346.933 467.539 353.8 464.072 359.8C460.739 365.8 456.005 370.533 449.872 374C443.872 377.333 436.805 379 428.672 379Z" fill="#FAFAFA"/>
<path d="M318.991 379C306.991 379 297.657 376.8 290.991 372.4C284.324 368 279.724 361.733 277.191 353.6C274.657 345.466 273.391 335.733 273.391 324.4V214.8H302.191V327.8C302.191 332.866 302.524 337.666 303.191 342.2C303.857 346.6 305.391 350.2 307.791 353C310.324 355.666 314.057 357 318.991 357C324.191 357 327.924 355.666 330.191 353C332.591 350.2 334.124 346.6 334.791 342.2C335.591 337.666 335.991 332.866 335.991 327.8V214.8H364.591V324.4C364.591 335.733 363.324 345.466 360.791 353.6C358.257 361.733 353.657 368 346.991 372.4C340.457 376.8 331.124 379 318.991 379Z" fill="#FAFAFA"/>
<path d="M163.263 376.8V214.8H201.463C214.663 214.8 224.929 216.6 232.263 220.2C239.729 223.8 244.996 229.333 248.063 236.8C251.263 244.266 252.863 253.733 252.863 265.2V324.4C252.863 336.133 251.263 345.933 248.063 353.8C244.996 361.533 239.796 367.333 232.463 371.2C225.263 374.933 215.329 376.8 202.663 376.8H163.263ZM192.863 356.2H201.863C208.663 356.2 213.529 355 216.463 352.6C219.396 350.2 221.196 346.733 221.863 342.2C222.529 337.533 222.863 331.866 222.863 325.2V263.2C222.863 256.666 222.396 251.4 221.463 247.4C220.529 243.4 218.596 240.466 215.663 238.6C212.729 236.733 207.996 235.8 201.463 235.8H192.863V356.2Z" fill="#FAFAFA"/>
<path d="M54.2783 376.8V214.8H74.8783L114.278 307.2V214.8H138.678V376.8H119.078L79.4783 280V376.8H54.2783Z" fill="#FAFAFA"/>
<path d="M0 376.8V214.8H29.2V376.8H0Z" fill="#FAFAFA"/>
<path d="M764.379 163.8V144.8L807.979 22.1998H766.779V1.7998H837.779V16.9998L792.579 143.4H837.979V163.8H764.379Z" fill="#FAFAFA"/>
<path d="M684.432 163.8V1.7998H752.432V22.5998H714.032V69.1998H744.232V89.7998H714.032V143.4H752.832V163.8H684.432Z" fill="#FAFAFA"/>
<path d="M600.252 163.8V1.7998H629.852V143.4H669.052V163.8H600.252Z" fill="#FAFAFA"/>
<path d="M487.56 163.8L519.96 1.7998H551.56L583.96 163.8H556.56L550.16 126.4H521.96L515.36 163.8H487.56ZM524.96 107.6H546.96L535.96 39.5998L524.96 107.6Z" fill="#FAFAFA"/>
<path d="M405.199 163.8V144.8L448.799 22.1998H407.599V1.7998H478.599V16.9998L433.399 143.4H478.799V163.8H405.199Z" fill="#FAFAFA"/>
<path d="M301.814 163.8V1.7998H322.414L361.814 94.1998V1.7998H386.214V163.8H366.614L327.014 66.9998V163.8H301.814Z" fill="#FAFAFA"/>
<path d="M233.119 166C221.652 166 212.519 163.867 205.719 159.6C198.919 155.333 194.052 149.2 191.119 141.2C188.185 133.2 186.719 123.733 186.719 112.8V52.2C186.719 41.2667 188.185 31.9333 191.119 24.2C194.052 16.3333 198.919 10.3333 205.719 6.2C212.519 2.06667 221.652 0 233.119 0C244.852 0 254.052 2.06667 260.719 6.2C267.519 10.3333 272.385 16.3333 275.319 24.2C278.385 31.9333 279.919 41.2667 279.919 52.2V113C279.919 123.8 278.385 133.2 275.319 141.2C272.385 149.067 267.519 155.2 260.719 159.6C254.052 163.867 244.852 166 233.119 166ZM233.119 144.2C238.052 144.2 241.652 143.133 243.919 141C246.319 138.867 247.919 135.933 248.719 132.2C249.519 128.467 249.919 124.4 249.919 120V45.4C249.919 40.8667 249.519 36.8 248.719 33.2C247.919 29.6 246.319 26.8 243.919 24.8C241.652 22.6667 238.052 21.6 233.119 21.6C228.452 21.6 224.919 22.6667 222.519 24.8C220.119 26.8 218.519 29.6 217.719 33.2C216.919 36.8 216.519 40.8667 216.519 45.4V120C216.519 124.4 216.852 128.467 217.519 132.2C218.319 135.933 219.919 138.867 222.319 141C224.719 143.133 228.319 144.2 233.119 144.2Z" fill="#FAFAFA"/>
<path d="M118 166C107.333 166 98.8667 163.733 92.6 159.2C86.3333 154.667 81.8 148.267 79 140C76.3333 131.6 75 121.733 75 110.4V56C75 44.4 76.3333 34.4 79 26C81.6667 17.6 86.3333 11.2 93 6.8C99.8 2.26666 109.133 0 121 0C132.067 0 140.867 1.86667 147.4 5.60001C153.933 9.33334 158.6 14.7333 161.4 21.8C164.333 28.7333 165.8 37.2 165.8 47.2V55.6H137.6V46.4C137.6 41.2 137.2 36.7333 136.4 33C135.733 29.2667 134.267 26.4667 132 24.6C129.867 22.6 126.333 21.6 121.4 21.6C116.2 21.6 112.4 22.8667 110 25.4C107.733 27.9333 106.267 31.2667 105.6 35.4C105.067 39.5333 104.8 44.0667 104.8 49V116.8C104.8 122.4 105.267 127.267 106.2 131.4C107.133 135.533 108.867 138.733 111.4 141C113.933 143.133 117.533 144.2 122.2 144.2C127 144.2 130.667 143 133.2 140.6C135.733 138.2 137.467 134.867 138.4 130.6C139.467 126.333 140 121.267 140 115.4V100.2H122.6V81.6H166.6V163.8H147.6L145.4 147.8C143.267 153.133 140 157.533 135.6 161C131.333 164.333 125.467 166 118 166Z" fill="#FAFAFA"/>
</svg>
